<?xml version="1.0" encoding="UTF-8" standalone="no"?>
<!-- Created with Inkscape (http://www.inkscape.org/) -->

<svg
   xmlns:ns3="http://ns.adobe.com/AdobeIllustrator/10.0/"
   xmlns:dc="http://purl.org/dc/elements/1.1/"
   xmlns:cc="http://creativecommons.org/ns#"
   xmlns:rdf="http://www.w3.org/1999/02/22-rdf-syntax-ns#"
   xmlns:svg="http://www.w3.org/2000/svg"
   xmlns="http://www.w3.org/2000/svg"
   xmlns:sodipodi="http://sodipodi.sourceforge.net/DTD/sodipodi-0.dtd"
   xmlns:inkscape="http://www.inkscape.org/namespaces/inkscape"
   width="1284"
   height="2778"
   viewBox="0 0 339.725 735.01252"
   version="1.1"
   id="svg8"
   inkscape:version="0.92.5 (2060ec1f9f, 2020-04-08)"
   sodipodi:docname="drawings.svg"
   inkscape:export-filename="/home/marc/ankerwache/img/splash.png"
   inkscape:export-xdpi="96"
   inkscape:export-ydpi="96">
  <defs
     id="defs2"><inkscape:path-effect
   only_selected="false"
   apply_with_weight="true"
   apply_no_weight="true"
   helper_size="0"
   steps="2"
   weight="33.333333"
   is_visible="true"
   id="path-effect1013"
   effect="bspline" />
<inkscape:path-effect
   effect="bspline"
   id="path-effect1009"
   is_visible="true"
   weight="33.333333"
   steps="2"
   helper_size="0"
   apply_no_weight="true"
   apply_with_weight="true"
   only_selected="false" />

			
			
		
				
			
					
				</defs>
  <sodipodi:namedview
     id="base"
     pagecolor="#ffffff"
     bordercolor="#666666"
     borderopacity="1.0"
     inkscape:pageopacity="0.0"
     inkscape:pageshadow="2"
     inkscape:zoom="0.25"
     inkscape:cx="358.87448"
     inkscape:cy="1268.0997"
     inkscape:document-units="mm"
     inkscape:current-layer="layer1"
     showgrid="false"
     inkscape:window-width="1920"
     inkscape:window-height="1018"
     inkscape:window-x="0"
     inkscape:window-y="0"
     inkscape:window-maximized="1"
     units="px" />
  <metadata
     id="metadata5">
    <rdf:RDF>
      <cc:Work
         rdf:about="">
        <dc:format>image/svg+xml</dc:format>
        <dc:type
           rdf:resource="http://purl.org/dc/dcmitype/StillImage" />
        <dc:title></dc:title>
      </cc:Work>
    </rdf:RDF>
  </metadata>
  <g
     inkscape:label="Layer 1"
     inkscape:groupmode="layer"
     id="layer1"
     transform="translate(0,438.01252)">
    <rect
       y="-352.81668"
       x="-498.47501"
       height="270.93332"
       width="270.93332"
       id="rect846"
       style="fill:#0c555d;fill-opacity:1;stroke:none;stroke-width:0.25952008;stroke-linecap:round;stroke-linejoin:round;stroke-miterlimit:4;stroke-dasharray:none;stroke-opacity:1"
       inkscape:export-xdpi="96"
       inkscape:export-ydpi="96"
       inkscape:export-filename="/home/marc/ankerwache/assets/icon.png" />
    <path
       id="path978"
       d="m -146.42578,-164.32064 c 1.79454,0 3.25739,-1.46285 3.25739,-3.25739 0,-1.79879 -1.46285,-3.25739 -3.25739,-3.25739 -1.80304,0 -3.26164,1.4586 -3.26164,3.25739 0.004,1.7988 1.4586,3.25739 3.26164,3.25739 z m 26.88835,30.92393 8.96845,-7.26321 1.80304,11.40086 1.80305,11.40512 -5.63027,-2.16025 c -4.57565,14.26702 -17.95391,24.600508 -33.75182,24.600508 -15.79791,0 -29.17617,-10.333488 -33.76033,-24.600508 l -5.62601,2.16025 1.8073,-11.40512 1.80304,-11.40086 8.97271,7.26321 8.9642,7.26747 -6.72741,2.58125 c 2.68331,9.02798 10.21443,15.97226 19.57836,17.82208 v -40.088 h -15.75964 v -8.99821 h 15.75964 v -2.21979 c -3.97181,-1.85408 -6.7189,-5.87691 -6.7189,-10.54187 0,-6.42547 5.20502,-11.63049 11.62624,-11.63049 6.42123,0 11.62625,5.20502 11.62625,11.62624 0,4.66921 -2.7471,8.69204 -6.7189,10.54187 v 2.21978 h 14.93891 v 8.99822 h -14.93891 v 40.12627 c 9.43197,-1.79029 17.03963,-8.76858 19.73995,-17.8561 l -6.7274,-2.58125 z"
       ns3:knockout="Off"
       inkscape:connector-curvature="0"
       style="fill:#c77933;fill-opacity:1;stroke-width:4.2524662" />
    <g
       id="g1039"
       transform="matrix(1.0429613,0,0,1.0419784,28.664289,-240.38397)"
       inkscape:export-xdpi="96"
       inkscape:export-ydpi="96"
       inkscape:export-filename="/home/marc/ankerwache/assets/icon.png">
      <path
         inkscape:export-ydpi="100000"
         inkscape:export-xdpi="100000"
         style="fill:#c77933;fill-opacity:1;stroke-width:0.22902393"
         d="m 133.71492,227.78309 c -0.14007,-0.14383 -0.41789,-0.86127 -0.61741,-1.59434 -0.42822,-1.57344 -1.27895,-3.28634 -1.82207,-3.66858 -0.21256,-0.14964 -0.38649,-0.38028 -0.38649,-0.51256 0,-0.13229 -0.70649,-0.81755 -1.56999,-1.5228 -1.39562,-1.13986 -2.46165,-1.79577 -6.62984,-4.07922 -1.49694,-0.82007 -6.61987,-2.55669 -12.73331,-4.31646 -2.57554,-0.74138 -6.67156,-2.54395 -9.44545,-4.15672 -2.830558,-1.64572 -6.872897,-5.03366 -8.562237,-7.17615 -2.244038,-2.84599 -3.066944,-4.03172 -4.236601,-6.10458 -0.708809,-1.25612 -1.367669,-2.28385 -1.464149,-2.28385 -0.09648,0 -0.41127,0.73583 -0.699556,1.63519 -0.541587,1.68955 -0.805562,2.13069 -1.275006,2.13069 -0.340525,0 -0.608266,-0.65403 -1.504783,-3.67581 -1.098356,-3.70207 -1.42085,-5.99713 -1.42085,-10.11156 0,-3.48782 0.131938,-4.751 1.042313,-9.9795 0.395096,-2.26909 0.871933,-2.86973 1.846315,-2.32568 0.326061,0.18206 0.658005,0.55227 0.737641,0.82267 0.07963,0.27039 0.212131,0.45616 0.294443,0.41282 0.08237,-0.0433 0.161562,0.20253 0.176152,0.54642 0.06192,1.45924 1.804278,5.68544 3.923393,9.51635 0.322073,0.58224 0.58559,1.14135 0.58559,1.24252 0,0.18384 1.612212,2.18582 3.066585,3.80798 0.424141,0.47307 1.660815,1.53594 2.748169,2.36195 2.231846,1.6954 2.893634,2.43378 2.684537,2.99523 -0.269046,0.72235 -1.567219,0.70271 -3.280844,-0.0496 -1.181892,-0.51888 -4.862154,-1.2603 -5.405585,-1.089 -0.478274,0.15077 -0.469096,0.18779 0.405214,1.63624 4.724184,7.82636 11.997839,12.7595 21.761719,14.75926 3.78717,0.77565 5.96514,1.02123 9.53622,1.07532 3.35616,0.0508 6.19479,-0.35756 7.34758,-1.05706 0.35643,-0.21629 0.94156,-0.90396 1.30028,-1.52814 0.62936,-1.09513 0.65809,-1.28073 0.82026,-5.29718 0.0923,-2.28925 0.22655,-4.34067 0.29808,-4.55869 0.0716,-0.21804 0.22727,-13.01706 0.34607,-28.4423 0.11876,-15.42522 0.28946,-31.23448 0.37922,-35.13167 l 0.16318,-7.08579 -2.07106,-0.002 c -2.63288,-0.002 -8.96244,-0.46454 -13.46801,-0.98161 -9.36242,-1.07449 -17.689673,-2.26361 -18.154662,-2.59246 -0.739441,-0.52296 -1.059574,-3.06688 -0.544416,-4.32619 0.355403,-0.86875 0.902124,-1.0578 3.333898,-1.15268 1.15913,-0.0452 4.82883,-0.21114 8.15487,-0.36872 3.32605,-0.15759 9.79427,-0.29127 14.37382,-0.2971 4.57954,-0.006 8.47834,-0.0602 8.664,-0.12099 0.18854,-0.0617 0.33753,-0.36628 0.33753,-0.69016 0,-0.39407 0.14547,-0.62565 0.45412,-0.72294 0.43271,-0.13642 0.42186,-0.18406 -0.23044,-1.01173 -1.3091,-1.66104 -1.41044,-2.74701 -0.61384,-6.57848 0.42141,-2.02689 0.66972,-2.7082 1.32653,-3.63961 1.3526,-1.91815 2.37226,-2.759709 4.32879,-3.572699 2.78369,-1.156702 4.53505,-1.186144 5.98589,-0.100662 1.07806,0.806619 2.05034,2.743471 2.18224,4.347211 0.12385,1.50551 -0.55314,4.24872 -1.39245,5.64251 -0.87428,1.45181 -3.24602,3.88459 -4.19091,4.29873 -0.47972,0.21026 -0.87221,0.42727 -0.87221,0.48226 0,0.0551 0.25464,0.18248 0.56586,0.28331 0.41435,0.13425 0.58561,0.3585 0.63962,0.83748 l 0.0738,0.65412 6.39622,0.13996 c 6.15843,0.13476 14.44909,0.54557 19.51909,0.96718 2.58081,0.2146 4.74539,0.58393 5.53615,0.94456 0.66634,0.30389 1.2275,1.83318 1.2275,3.34522 0,1.23794 -0.0151,1.26848 -0.75593,1.53118 -0.41575,0.14742 -2.22124,0.45829 -4.01218,0.6908 -1.79095,0.23252 -3.88426,0.50681 -4.65181,0.60954 -1.69784,0.22725 -2.87392,0.31581 -7.6755,0.57808 -2.04678,0.11181 -5.34376,0.29458 -7.32659,0.40619 -1.98284,0.11156 -4.61823,0.25516 -5.85645,0.319 -1.23822,0.0638 -2.40863,0.21971 -2.60093,0.34636 -0.29492,0.1943 -0.38953,1.626 -0.60472,9.14951 -0.22226,7.77113 -0.69013,51.78397 -0.7024,66.07442 l -0.005,5.02755 0.97867,0.76232 c 1.20182,0.93616 2.35444,1.17631 5.60348,1.16747 4.66906,-0.0127 9.61358,-0.49246 12.02509,-1.16679 3.28227,-0.91782 5.35366,-1.62349 6.39626,-2.17894 0.51168,-0.27264 1.61068,-0.79869 2.44219,-1.16898 0.83151,-0.37028 1.8741,-0.90929 2.31687,-1.19775 0.44278,-0.28849 1.03042,-0.6583 1.30588,-0.82181 0.64581,-0.38339 2.3549,-1.47026 3.2016,-2.03607 1.094,-0.73104 5.51569,-4.92137 5.3843,-5.10255 -0.16498,-0.22746 -1.82906,0.28038 -3.25391,0.99306 -1.741,0.87078 -2.66979,1.21647 -2.91762,1.08594 -0.12223,-0.0645 -0.22235,-0.38227 -0.22235,-0.70636 0,-1.28778 1.14184,-2.74878 3.92095,-5.01688 1.39466,-1.13822 2.57049,-2.39761 3.23018,-3.45976 0.15969,-0.25708 0.49716,-0.79223 0.74997,-1.18923 1.21355,-1.90569 2.35374,-5.0978 3.01886,-8.45176 0.80321,-4.05034 1.08178,-4.82856 1.7819,-4.97831 0.32443,-0.0693 0.6804,-0.048 0.79107,0.0477 0.32277,0.27878 1.31666,3.40359 1.63133,5.12891 0.15905,0.87209 0.37979,1.67035 0.49054,1.77392 0.1107,0.10351 0.20136,0.52817 0.20136,0.94359 0,0.41542 0.15036,1.57938 0.33417,2.58657 0.57447,3.14815 0.83176,7.73961 0.59129,10.55224 -0.25149,2.94162 -0.44347,3.86059 -1.02285,4.89644 -0.5834,1.043 -0.98852,1.28986 -1.17045,0.71327 -0.0792,-0.25103 -0.25754,-0.81316 -0.39632,-1.24923 -0.13878,-0.43605 -0.42297,-1.09402 -0.63149,-1.46217 -0.41247,-0.72818 -2.2797,-2.60101 -2.59325,-2.60101 -0.10661,0 -0.53394,0.51286 -0.94945,1.13967 -0.41554,0.62684 -0.94003,1.34532 -1.16557,1.59669 -0.22552,0.25137 -0.64411,0.8757 -0.93016,1.38743 -0.49821,0.89126 -5.14717,5.03856 -7.26396,6.48014 -0.48023,0.32703 -1.20824,0.82447 -1.61782,1.10538 -0.40962,0.28092 -1.32039,0.82675 -2.02398,1.21294 -0.70359,0.3862 -1.90724,1.04795 -2.67479,1.47058 -3.57529,1.96863 -7.01859,3.49279 -10.46658,4.63295 -4.57619,1.5132 -10.12756,3.61495 -11.47508,4.34443 -0.72457,0.39226 -1.61571,0.84417 -1.98033,1.00427 -1.33428,0.58586 -3.82545,3.00291 -5.42797,5.26649 -0.57292,0.80924 -1.93877,3.65195 -2.30484,4.79699 -0.105,0.32854 -1.36371,0.31829 -1.68706,-0.0137 z m 5.10846,-117.65587 c 1.49064,-1.41329 3.69429,-5.74236 3.68976,-7.24853 -0.002,-0.80065 -0.20443,-1.01459 -1.11765,-1.18346 -3.01706,-0.55798 -5.7188,2.38312 -6.02977,6.56392 -0.18955,2.54819 0.0447,2.90428 1.80318,2.74063 0.59291,-0.0553 1.04237,-0.29223 1.65448,-0.87256 z"
         id="path4291"
         inkscape:connector-curvature="0" />
      <g
         inkscape:export-ydpi="100000"
         inkscape:export-xdpi="100000"
         transform="translate(128.0622,238.91223)"
         id="g1027">
        <path
           style="fill:none;stroke:#c77933;stroke-width:5;stroke-linecap:butt;stroke-linejoin:miter;stroke-miterlimit:4;stroke-dasharray:none;stroke-opacity:1"
           d="m 41.159507,170.71515 c 3.519111,2.36092 6.964717,4.67253 10.557327,4.67631 3.59261,0.004 7.038218,-2.30035 10.556964,-4.65339"
           id="path1007"
           inkscape:connector-curvature="0"
           inkscape:path-effect="#path-effect1009"
           inkscape:original-d="m 41.159507,170.71515 c 3.519313,2.36062 6.964919,4.67223 10.557145,7.08264 3.592754,-2.40261 7.038362,-4.70674 10.557146,-7.05972"
           sodipodi:nodetypes="ccc"
           transform="translate(-72.636891,-266.82759)" />
        <path
           transform="translate(-15.441221,-266.82759)"
           sodipodi:nodetypes="ccc"
           inkscape:original-d="m 41.159507,170.71515 c 3.519313,2.36062 6.964919,4.67223 10.557145,7.08264 3.592754,-2.40261 7.038362,-4.70674 10.557146,-7.05972"
           inkscape:path-effect="#path-effect1013"
           inkscape:connector-curvature="0"
           id="path1011"
           d="m 41.159507,170.71515 c 3.519111,2.36092 6.964717,4.67253 10.557327,4.67631 3.59261,0.004 7.038218,-2.30035 10.556964,-4.65339"
           style="fill:none;stroke:#c77933;stroke-width:5;stroke-linecap:butt;stroke-linejoin:miter;stroke-miterlimit:4;stroke-dasharray:none;stroke-opacity:1" />
      </g>
    </g>
    <rect
       style="fill:none;fill-opacity:1;stroke:#000000;stroke-width:0.26458332;stroke-linecap:round;stroke-linejoin:miter;stroke-miterlimit:4;stroke-dasharray:none;stroke-opacity:1"
       id="rect1015"
       width="132.25076"
       height="132.25075"
       x="-211.0052"
       y="64.075279" />
    <path
       inkscape:export-ydpi="100000"
       inkscape:export-xdpi="100000"
       style="fill:#c77933;fill-opacity:1;stroke-width:0.07338981"
       d="m -142.64263,-8.5809537 c -0.0449,-0.0461 -0.13391,-0.27599 -0.19784,-0.5109 -0.13722,-0.5042 -0.40984,-1.0530903 -0.58388,-1.1755803 -0.0681,-0.048 -0.12385,-0.12186 -0.12385,-0.16425 0,-0.0424 -0.22639,-0.26198 -0.50309,-0.48797 -0.44722,-0.36527 -0.78883,-0.57545 -2.12451,-1.30717 -0.47969,-0.26279 -2.12131,-0.81928 -4.08034,-1.38319 -0.82532,-0.23758 -2.13787,-0.8152 -3.02676,-1.33201 -0.90704,-0.52736 -2.20239,-1.61301 -2.74373,-2.29957 -0.71909,-0.91198 -0.98279,-1.29194 -1.3576,-1.95618 -0.22714,-0.40252 -0.43827,-0.73185 -0.46918,-0.73185 -0.0309,0 -0.13179,0.23579 -0.22417,0.52399 -0.17355,0.5414 -0.25814,0.68277 -0.40857,0.68277 -0.10912,0 -0.19492,-0.20958 -0.4822,-1.1779 -0.35197,-1.18632 -0.45531,-1.92176 -0.45531,-3.24021 0,-1.11766 0.0423,-1.52244 0.334,-3.19789 0.12661,-0.72712 0.27941,-0.9196 0.59165,-0.74526 0.10448,0.0583 0.21085,0.17698 0.23637,0.26362 0.0255,0.0867 0.068,0.14618 0.0944,0.13229 0.0264,-0.0139 0.0518,0.0649 0.0564,0.1751 0.0198,0.46761 0.57818,1.82188 1.25724,3.04947 0.10321,0.18658 0.18765,0.36575 0.18765,0.39817 0,0.0589 0.51663,0.70043 0.98267,1.22025 0.13592,0.15159 0.53221,0.49218 0.88064,0.75688 0.71519,0.54328 0.92726,0.77989 0.86025,0.9598 -0.0862,0.23148 -0.50221,0.22519 -1.05133,-0.0159 -0.37873,-0.16627 -1.55806,-0.40386 -1.7322,-0.34897 -0.15326,0.0483 -0.15032,0.0602 0.12985,0.52433 1.51385,2.50793 3.84466,4.08873 6.97346,4.72955 1.21358,0.24855 1.9115,0.32725 3.05584,0.34458 1.07547,0.0163 1.9851,-0.11458 2.3545,-0.33873 0.11422,-0.0693 0.30172,-0.28967 0.41667,-0.48969 0.20168,-0.35093 0.21089,-0.4104 0.26285,-1.69746 0.0296,-0.73358 0.0726,-1.39095 0.0955,-1.46081 0.0229,-0.0699 0.0728,-4.17127 0.1109,-9.11422 0.038,-4.94295 0.0928,-10.008969 0.12152,-11.257808 l 0.0523,-2.270613 -0.66367,-6.41e-4 c -0.84369,-6.41e-4 -2.87197,-0.14886 -4.31577,-0.314553 -3.00015,-0.344316 -5.66858,-0.725365 -5.81758,-0.830743 -0.23696,-0.167581 -0.33954,-0.98277 -0.17446,-1.386311 0.11389,-0.278387 0.28908,-0.338967 1.06833,-0.369371 0.37144,-0.01448 1.54738,-0.06766 2.6132,-0.118155 1.06582,-0.0505 3.13853,-0.09334 4.60603,-0.0952 1.4675,-0.0019 2.71685,-0.01929 2.77635,-0.03877 0.0604,-0.01977 0.10816,-0.117372 0.10816,-0.221159 0,-0.126278 0.0466,-0.200487 0.14552,-0.231663 0.13866,-0.04371 0.13518,-0.05898 -0.0738,-0.324205 -0.41949,-0.532273 -0.45197,-0.880268 -0.1967,-2.108047 0.13504,-0.649509 0.21461,-0.867832 0.42508,-1.166299 0.43344,-0.614664 0.76018,-0.884338 1.38715,-1.144857 0.89202,-0.370661 1.45324,-0.380095 1.91815,-0.03226 0.34546,0.258478 0.65702,0.879134 0.69929,1.393047 0.0397,0.482434 -0.17725,1.361485 -0.4462,1.808119 -0.28016,0.465227 -1.04018,1.244802 -1.34296,1.377511 -0.15373,0.06738 -0.2795,0.136917 -0.2795,0.154539 0,0.01766 0.0816,0.05848 0.18133,0.09078 0.13277,0.04302 0.18765,0.11488 0.20496,0.268367 l 0.0237,0.209611 2.04964,0.04485 c 1.97345,0.04318 4.63016,0.174826 6.25482,0.309929 0.82701,0.06877 1.52064,0.187118 1.77403,0.302681 0.21353,0.09738 0.39335,0.587435 0.39335,1.071962 0,0.396693 -0.005,0.406479 -0.24223,0.490661 -0.13323,0.04724 -0.71179,0.146857 -1.28569,0.221364 -0.5739,0.07451 -1.2447,0.162405 -1.49065,0.195324 -0.54407,0.07282 -0.92094,0.101201 -2.45959,0.185244 -0.65588,0.03583 -1.71238,0.0944 -2.34777,0.130162 -0.6354,0.03575 -1.4799,0.08177 -1.87668,0.102222 -0.39678,0.02044 -0.77184,0.07041 -0.83346,0.11099 -0.0945,0.06226 -0.12482,0.521045 -0.19378,2.931924 -0.0712,2.490228 -0.22115,16.593968 -0.22508,21.173288 l -0.002,1.61106 0.31361,0.24428 c 0.38512,0.29999 0.75447,0.37694 1.79561,0.37411 1.49618,-0.004 3.08064,-0.15781 3.85339,-0.37389 1.0518,-0.29412 1.71556,-0.52025 2.04966,-0.69824 0.16397,-0.0874 0.51614,-0.25593 0.78259,-0.37459 0.26646,-0.11866 0.60055,-0.29138 0.74243,-0.38382 0.14189,-0.0924 0.3302,-0.21094 0.41847,-0.26334 0.20694,-0.12286 0.75462,-0.47114 1.02594,-0.65245 0.35056,-0.23426 1.76748,-1.57703 1.72537,-1.63509 -0.0529,-0.0729 -0.58611,0.0898 -1.0427,0.31822 -0.55789,0.27904 -0.85552,0.38981 -0.93494,0.34798 -0.0392,-0.0207 -0.0713,-0.12249 -0.0713,-0.22635 0,-0.41266 0.3659,-0.88083 1.25645,-1.60764 0.44692,-0.36473 0.82371,-0.7683 1.0351,-1.10866 0.0512,-0.0824 0.15932,-0.25387 0.24033,-0.38109 0.38887,-0.61067 0.75424,-1.63357 0.96738,-2.70833 0.25738,-1.29791 0.34665,-1.54729 0.571,-1.59528 0.10396,-0.0222 0.21803,-0.0154 0.2535,0.0153 0.10343,0.0893 0.42192,1.09066 0.52275,1.64354 0.051,0.27945 0.1217,0.53525 0.15719,0.56844 0.0355,0.0332 0.0645,0.16925 0.0645,0.30237 0,0.13312 0.0482,0.50611 0.10708,0.82886 0.18409,1.00881 0.26653,2.48012 0.18948,3.38142 -0.0806,0.94263 -0.14211,1.23711 -0.32777,1.56905 -0.18695,0.33422 -0.31677,0.41333 -0.37507,0.22856 -0.0254,-0.0804 -0.0825,-0.26057 -0.127,-0.40031 -0.0445,-0.13973 -0.13554,-0.35058 -0.20236,-0.46855 -0.13217,-0.23334 -0.73052,-0.83348 -0.83099,-0.83348 -0.0342,0 -0.1711,0.16434 -0.30425,0.3652 -0.13316,0.20087 -0.30123,0.4311 -0.3735,0.51165 -0.0723,0.0806 -0.2064,0.28062 -0.29807,0.4446 -0.15965,0.2856 -1.64939,1.61459 -2.3277,2.07653 -0.15389,0.1048 -0.38718,0.2642 -0.51843,0.35422 -0.13126,0.09 -0.42311,0.26493 -0.64858,0.38868 -0.22546,0.12376 -0.61116,0.33581 -0.85712,0.47124 -1.14569,0.63084 -2.24908,1.11925 -3.35397,1.48461 -1.46643,0.4849 -3.24534,1.1584 -3.67715,1.39216 -0.23218,0.1257 -0.51775,0.27051 -0.63459,0.32181 -0.42756,0.18774 -1.22585,0.96227 -1.73937,1.68763 -0.18359,0.2593203 -0.62127,1.1702503 -0.73858,1.5371803 -0.0336,0.10527 -0.43699,0.10199 -0.54061,-0.004 z m 1.63699,-37.7023513 c 0.47767,-0.452884 1.18382,-1.840117 1.18237,-2.322763 -6.4e-4,-0.256565 -0.0655,-0.325121 -0.35815,-0.379235 -0.9668,-0.178803 -1.83256,0.763661 -1.93221,2.103382 -0.0607,0.816557 0.0143,0.930665 0.57782,0.878224 0.18999,-0.01772 0.33402,-0.09364 0.53017,-0.279608 z"
       id="path1029"
       inkscape:connector-curvature="0" />
    <rect
       style="fill:#0c555d;fill-opacity:1;stroke:none;stroke-width:0.012165;stroke-linecap:round;stroke-linejoin:round;stroke-miterlimit:4;stroke-dasharray:none;stroke-opacity:1"
       id="rect1031"
       width="12.7"
       height="12.7"
       x="-219.075"
       y="-59.658348"
       inkscape:export-xdpi="96"
       inkscape:export-ydpi="96" />
    <g
       id="g1049"
       transform="matrix(0.09768548,0,0,0.09768548,-225.89576,-69.234386)"
       inkscape:export-xdpi="96"
       inkscape:export-ydpi="96">
      <path
         inkscape:connector-curvature="0"
         id="path1041"
         d="m 133.71492,227.78309 c -0.14007,-0.14383 -0.41789,-0.86127 -0.61741,-1.59434 -0.42822,-1.57344 -1.27895,-3.28634 -1.82207,-3.66858 -0.21256,-0.14964 -0.38649,-0.38028 -0.38649,-0.51256 0,-0.13229 -0.70649,-0.81755 -1.56999,-1.5228 -1.39562,-1.13986 -2.46165,-1.79577 -6.62984,-4.07922 -1.49694,-0.82007 -6.61987,-2.55669 -12.73331,-4.31646 -2.57554,-0.74138 -6.67156,-2.54395 -9.44545,-4.15672 -2.830558,-1.64572 -6.872897,-5.03366 -8.562237,-7.17615 -2.244038,-2.84599 -3.066944,-4.03172 -4.236601,-6.10458 -0.708809,-1.25612 -1.367669,-2.28385 -1.464149,-2.28385 -0.09648,0 -0.41127,0.73583 -0.699556,1.63519 -0.541587,1.68955 -0.805562,2.13069 -1.275006,2.13069 -0.340525,0 -0.608266,-0.65403 -1.504783,-3.67581 -1.098356,-3.70207 -1.42085,-5.99713 -1.42085,-10.11156 0,-3.48782 0.131938,-4.751 1.042313,-9.9795 0.395096,-2.26909 0.871933,-2.86973 1.846315,-2.32568 0.326061,0.18206 0.658005,0.55227 0.737641,0.82267 0.07963,0.27039 0.212131,0.45616 0.294443,0.41282 0.08237,-0.0433 0.161562,0.20253 0.176152,0.54642 0.06192,1.45924 1.804278,5.68544 3.923393,9.51635 0.322073,0.58224 0.58559,1.14135 0.58559,1.24252 0,0.18384 1.612212,2.18582 3.066585,3.80798 0.424141,0.47307 1.660815,1.53594 2.748169,2.36195 2.231846,1.6954 2.893634,2.43378 2.684537,2.99523 -0.269046,0.72235 -1.567219,0.70271 -3.280844,-0.0496 -1.181892,-0.51888 -4.862154,-1.2603 -5.405585,-1.089 -0.478274,0.15077 -0.469096,0.18779 0.405214,1.63624 4.724184,7.82636 11.997839,12.7595 21.761719,14.75926 3.78717,0.77565 5.96514,1.02123 9.53622,1.07532 3.35616,0.0508 6.19479,-0.35756 7.34758,-1.05706 0.35643,-0.21629 0.94156,-0.90396 1.30028,-1.52814 0.62936,-1.09513 0.65809,-1.28073 0.82026,-5.29718 0.0923,-2.28925 0.22655,-4.34067 0.29808,-4.55869 0.0716,-0.21804 0.22727,-13.01706 0.34607,-28.4423 0.11876,-15.42522 0.28946,-31.23448 0.37922,-35.13167 l 0.16318,-7.08579 -2.07106,-0.002 c -2.63288,-0.002 -8.96244,-0.46454 -13.46801,-0.98161 -9.36242,-1.07449 -17.689673,-2.26361 -18.154662,-2.59246 -0.739441,-0.52296 -1.059574,-3.06688 -0.544416,-4.32619 0.355403,-0.86875 0.902124,-1.0578 3.333898,-1.15268 1.15913,-0.0452 4.82883,-0.21114 8.15487,-0.36872 3.32605,-0.15759 9.79427,-0.29127 14.37382,-0.2971 4.57954,-0.006 8.47834,-0.0602 8.664,-0.12099 0.18854,-0.0617 0.33753,-0.36628 0.33753,-0.69016 0,-0.39407 0.14547,-0.62565 0.45412,-0.72294 0.43271,-0.13642 0.42186,-0.18406 -0.23044,-1.01173 -1.3091,-1.66104 -1.41044,-2.74701 -0.61384,-6.57848 0.42141,-2.02689 0.66972,-2.7082 1.32653,-3.63961 1.3526,-1.91815 2.37226,-2.759709 4.32879,-3.572699 2.78369,-1.156702 4.53505,-1.186144 5.98589,-0.100662 1.07806,0.806619 2.05034,2.743471 2.18224,4.347211 0.12385,1.50551 -0.55314,4.24872 -1.39245,5.64251 -0.87428,1.45181 -3.24602,3.88459 -4.19091,4.29873 -0.47972,0.21026 -0.87221,0.42727 -0.87221,0.48226 0,0.0551 0.25464,0.18248 0.56586,0.28331 0.41435,0.13425 0.58561,0.3585 0.63962,0.83748 l 0.0738,0.65412 6.39622,0.13996 c 6.15843,0.13476 14.44909,0.54557 19.51909,0.96718 2.58081,0.2146 4.74539,0.58393 5.53615,0.94456 0.66634,0.30389 1.2275,1.83318 1.2275,3.34522 0,1.23794 -0.0151,1.26848 -0.75593,1.53118 -0.41575,0.14742 -2.22124,0.45829 -4.01218,0.6908 -1.79095,0.23252 -3.88426,0.50681 -4.65181,0.60954 -1.69784,0.22725 -2.87392,0.31581 -7.6755,0.57808 -2.04678,0.11181 -5.34376,0.29458 -7.32659,0.40619 -1.98284,0.11156 -4.61823,0.25516 -5.85645,0.319 -1.23822,0.0638 -2.40863,0.21971 -2.60093,0.34636 -0.29492,0.1943 -0.38953,1.626 -0.60472,9.14951 -0.22226,7.77113 -0.69013,51.78397 -0.7024,66.07442 l -0.005,5.02755 0.97867,0.76232 c 1.20182,0.93616 2.35444,1.17631 5.60348,1.16747 4.66906,-0.0127 9.61358,-0.49246 12.02509,-1.16679 3.28227,-0.91782 5.35366,-1.62349 6.39626,-2.17894 0.51168,-0.27264 1.61068,-0.79869 2.44219,-1.16898 0.83151,-0.37028 1.8741,-0.90929 2.31687,-1.19775 0.44278,-0.28849 1.03042,-0.6583 1.30588,-0.82181 0.64581,-0.38339 2.3549,-1.47026 3.2016,-2.03607 1.094,-0.73104 5.51569,-4.92137 5.3843,-5.10255 -0.16498,-0.22746 -1.82906,0.28038 -3.25391,0.99306 -1.741,0.87078 -2.66979,1.21647 -2.91762,1.08594 -0.12223,-0.0645 -0.22235,-0.38227 -0.22235,-0.70636 0,-1.28778 1.14184,-2.74878 3.92095,-5.01688 1.39466,-1.13822 2.57049,-2.39761 3.23018,-3.45976 0.15969,-0.25708 0.49716,-0.79223 0.74997,-1.18923 1.21355,-1.90569 2.35374,-5.0978 3.01886,-8.45176 0.80321,-4.05034 1.08178,-4.82856 1.7819,-4.97831 0.32443,-0.0693 0.6804,-0.048 0.79107,0.0477 0.32277,0.27878 1.31666,3.40359 1.63133,5.12891 0.15905,0.87209 0.37979,1.67035 0.49054,1.77392 0.1107,0.10351 0.20136,0.52817 0.20136,0.94359 0,0.41542 0.15036,1.57938 0.33417,2.58657 0.57447,3.14815 0.83176,7.73961 0.59129,10.55224 -0.25149,2.94162 -0.44347,3.86059 -1.02285,4.89644 -0.5834,1.043 -0.98852,1.28986 -1.17045,0.71327 -0.0792,-0.25103 -0.25754,-0.81316 -0.39632,-1.24923 -0.13878,-0.43605 -0.42297,-1.09402 -0.63149,-1.46217 -0.41247,-0.72818 -2.2797,-2.60101 -2.59325,-2.60101 -0.10661,0 -0.53394,0.51286 -0.94945,1.13967 -0.41554,0.62684 -0.94003,1.34532 -1.16557,1.59669 -0.22552,0.25137 -0.64411,0.8757 -0.93016,1.38743 -0.49821,0.89126 -5.14717,5.03856 -7.26396,6.48014 -0.48023,0.32703 -1.20824,0.82447 -1.61782,1.10538 -0.40962,0.28092 -1.32039,0.82675 -2.02398,1.21294 -0.70359,0.3862 -1.90724,1.04795 -2.67479,1.47058 -3.57529,1.96863 -7.01859,3.49279 -10.46658,4.63295 -4.57619,1.5132 -10.12756,3.61495 -11.47508,4.34443 -0.72457,0.39226 -1.61571,0.84417 -1.98033,1.00427 -1.33428,0.58586 -3.82545,3.00291 -5.42797,5.26649 -0.57292,0.80924 -1.93877,3.65195 -2.30484,4.79699 -0.105,0.32854 -1.36371,0.31829 -1.68706,-0.0137 z m 5.10846,-117.65587 c 1.49064,-1.41329 3.69429,-5.74236 3.68976,-7.24853 -0.002,-0.80065 -0.20443,-1.01459 -1.11765,-1.18346 -3.01706,-0.55798 -5.7188,2.38312 -6.02977,6.56392 -0.18955,2.54819 0.0447,2.90428 1.80318,2.74063 0.59291,-0.0553 1.04237,-0.29223 1.65448,-0.87256 z"
         style="fill:#c77933;fill-opacity:1;stroke-width:0.22902393"
         inkscape:export-xdpi="100000"
         inkscape:export-ydpi="100000" />
      <g
         id="g1047"
         transform="translate(128.0622,238.91223)"
         inkscape:export-xdpi="100000"
         inkscape:export-ydpi="100000">
        <path
           transform="translate(-72.636891,-266.82759)"
           sodipodi:nodetypes="ccc"
           inkscape:original-d="m 41.159507,170.71515 c 3.519313,2.36062 6.964919,4.67223 10.557145,7.08264 3.592754,-2.40261 7.038362,-4.70674 10.557146,-7.05972"
           inkscape:path-effect="#path-effect1009"
           inkscape:connector-curvature="0"
           id="path1043"
           d="m 41.159507,170.71515 c 3.519111,2.36092 6.964717,4.67253 10.557327,4.67631 3.59261,0.004 7.038218,-2.30035 10.556964,-4.65339"
           style="fill:none;stroke:#c77933;stroke-width:5;stroke-linecap:butt;stroke-linejoin:miter;stroke-miterlimit:4;stroke-dasharray:none;stroke-opacity:1" />
        <path
           style="fill:none;stroke:#c77933;stroke-width:5;stroke-linecap:butt;stroke-linejoin:miter;stroke-miterlimit:4;stroke-dasharray:none;stroke-opacity:1"
           d="m 41.159507,170.71515 c 3.519111,2.36092 6.964717,4.67253 10.557327,4.67631 3.59261,0.004 7.038218,-2.30035 10.556964,-4.65339"
           id="path1045"
           inkscape:connector-curvature="0"
           inkscape:path-effect="#path-effect1013"
           inkscape:original-d="m 41.159507,170.71515 c 3.519313,2.36062 6.964919,4.67223 10.557145,7.08264 3.592754,-2.40261 7.038362,-4.70674 10.557146,-7.05972"
           sodipodi:nodetypes="ccc"
           transform="translate(-15.441221,-266.82759)" />
      </g>
    </g>
  </g>
</svg>
